<svg xmlns="http://www.w3.org/2000/svg" width="29.01" height="34.654" viewBox="0 0 29.01 34.654">
  <path id="apple" d="M29.009,25.3a20.122,20.122,0,0,1-2.561,5.207Q23.761,34.59,21.1,34.59a9.624,9.624,0,0,1-2.916-.666,9.211,9.211,0,0,0-3.145-.666,8.015,8.015,0,0,0-2.957.687,7.523,7.523,0,0,1-2.749.708q-3.165,0-6.268-5.393A21.358,21.358,0,0,1,0,18.784,12.352,12.352,0,0,1,2.353,11,7.227,7.227,0,0,1,8.268,8a13.852,13.852,0,0,1,3.686.625,13.411,13.411,0,0,0,2.874.625,10.416,10.416,0,0,0,2.978-.708,11.759,11.759,0,0,1,3.6-.708,7.612,7.612,0,0,1,4.436,1.353,10.754,10.754,0,0,1,2.166,2.082,13.5,13.5,0,0,0-2.374,2.457,7.417,7.417,0,0,0-1.353,4.31,7.931,7.931,0,0,0,1.437,4.644A6.333,6.333,0,0,0,29.01,25.3ZM21.179.875a7.941,7.941,0,0,1-.6,2.832,8.545,8.545,0,0,1-1.937,2.874,5.9,5.9,0,0,1-2.25,1.5,11.633,11.633,0,0,1-2.166.354,9.492,9.492,0,0,1,1.625-5.352A8.3,8.3,0,0,1,21.054,0a1.93,1.93,0,0,1,.052.229,1.93,1.93,0,0,0,.052.229q0,.084.011.208t.011.208Z" fill="#fff"/>
</svg>
