<svg xmlns="http://www.w3.org/2000/svg" width="342.632" height="63.71" viewBox="0 0 342.632 63.71">
  <g id="Group_451" data-name="Group 451" transform="translate(-10.123 0)">
    <path id="Path_6" data-name="Path 6" d="M1367.808,1509.581s26.39.024,25.523.367-33.807,63.343-33.807,63.343l-16.765-3.73Z" transform="translate(-1332.636 -1509.581)" fill="#fff" opacity="0.05"/>
    <path id="Path_6-2" data-name="Path 6" d="M1370.668,1509.581s26.39.024,25.523.367-33.807,63.343-33.807,63.343h-25.428Z" transform="translate(-1293.416 -1509.581)" fill="#fff" opacity="0.05"/>
    <path id="Path_44" data-name="Path 44" d="M1370.668,1509.581s26.39.024,25.523.367-33.807,63.343-33.807,63.343h-25.428Z" transform="translate(-1251.645 -1509.581)" fill="#fff" opacity="0.05"/>
    <path id="Path_6-3" data-name="Path 6" d="M1370.668,1509.581s26.39.024,25.523.367-33.807,63.343-33.807,63.343h-25.428Z" transform="translate(-1209.874 -1509.581)" fill="#fff" opacity="0.05"/>
    <path id="Path_6-4" data-name="Path 6" d="M1370.668,1509.581s26.39.024,25.523.367-33.807,63.343-33.807,63.343h-25.428Z" transform="translate(-1168.104 -1509.581)" fill="#fff" opacity="0.05"/>
    <path id="Path_45" data-name="Path 45" d="M1370.668,1509.581s26.39.024,25.523.367-33.807,63.343-33.807,63.343h-25.428Z" transform="translate(-1126.332 -1509.581)" fill="#fff" opacity="0.05"/>
    <path id="Path_6-5" data-name="Path 6" d="M1370.668,1509.581s26.39.024,25.523.367-33.807,63.343-33.807,63.343h-25.428Z" transform="translate(-1084.562 -1509.581)" fill="#fff" opacity="0.05"/>
    <path id="Path_6-6" data-name="Path 6" d="M1370.668,1509.581s25.724,1.122,24.856,1.466-33.14,62.244-33.14,62.244h-25.428Z" transform="translate(-1042.791 -1509.581)" fill="#fff" opacity="0.05"/>
  </g>
</svg>
