<svg xmlns="http://www.w3.org/2000/svg" width="182.03" height="126.645" viewBox="0 0 182.03 126.645">
  <path id="Subtraction_1" data-name="Subtraction 1" d="M2162.322,137.166c-17.761-.428-29.569-6.564-36.347-11.637a41.742,41.742,0,0,1-10.563-11.016c0-48.1,22.4-87.659,22.624-88.053,20.51-15.171,39.518-15.94,43.119-15.94.314,0,.473.008.473.008l1.692,1.7c-26.921,6.521-39.811,18.86-40.226,19.264.041-.028.2-.1.435-.216,1.143-.546,4.183-2,8.771-3.989,17.021-6.8,29.354-9.227,35.226-9.227h2.512c4.955-.429,11.119-.963,17.491-.963a87.657,87.657,0,0,1,13.538.963c16.222,1.828,31.135,6.362,46.938,14.269-.109-.1-12.769-11.8-38.561-19.274l2.31-2.3c3.644.015,22.794.858,42.928,15.8.231.4,22.761,40.37,22.761,88.053a.074.074,0,0,0-.063-.029c-.2,0-.731.556-1.61,1.477-4.625,4.856-18.653,19.587-46.851,20.2-.01-.007-.037-.039-.086-.1-1.418-1.652-6.329-7.431-9.88-12.45,19.779-5.768,27.57-17.494,27.643-17.61a121.182,121.182,0,0,1-13.241,7.145l-.092.044c-1.468.71-2.858,1.38-4.17,2.053-7.356,3.283-14.836,4.966-22.07,6.594l-.5.112a119.2,119.2,0,0,1-19.572,1.592,142.107,142.107,0,0,1-20.669-1.592,102.258,102.258,0,0,1-22.566-6.721c-3.025-1.459-6.578-2.924-10.34-4.475l-1.321-.544a.948.948,0,0,1-.75-.374l0-.078-.044-.042a.944.944,0,0,0-.708-.334h-.752a43.452,43.452,0,0,0-4.2-2.505c.063.1,7.713,11.8,26.828,17.609-4.793,5.542-9.564,11.856-10.092,12.557l0,0Zm72.13-71.262-.023.038c-8.737,0-15.87,7.525-15.9,16.774,0,9.229,7.144,16.738,15.923,16.738s15.925-7.542,15.925-16.813C2250.377,73.412,2243.235,65.9,2234.452,65.9Zm-56.956,0-.053.03h-.006c-8.771,0-15.91,7.528-15.91,16.782,0,9.229,7.141,16.738,15.916,16.738s15.923-7.542,15.923-16.813C2193.367,73.412,2186.247,65.9,2177.5,65.9Z" transform="translate(-2115.411 -10.521)" fill="#fff" opacity="0.02"/>
</svg>
