<svg xmlns="http://www.w3.org/2000/svg" width="32.489" height="36" viewBox="0 0 32.489 36">
  <path id="discord" d="M30.333,0a3.948,3.948,0,0,1,3.911,3.713V36l-4.016-3.41-2.2-2.007-2.406-2.1,1,3.308H5.565a3.722,3.722,0,0,1-3.81-3.714V3.72A3.8,3.8,0,0,1,5.572,0h24.75ZM21.156,8.524h-.045l-.3.3a12.093,12.093,0,0,1,4.614,2.305,16.33,16.33,0,0,0-5.616-1.706,15.4,15.4,0,0,0-3.713,0h-.3a13.365,13.365,0,0,0-4.215,1.1c-.7.3-1.1.5-1.1.5A10.7,10.7,0,0,1,15.29,8.725l-.2-.2a9.011,9.011,0,0,0-5.215,1.9,23.473,23.473,0,0,0-2.708,10.53s1.5,2.61,5.614,2.709c0,0,.6-.8,1.208-1.5a5.935,5.935,0,0,1-3.21-2.106,5.009,5.009,0,0,1,.5.3h.09a.118.118,0,0,1,.09.045v.009a.115.115,0,0,0,.09.045c.495.2.99.405,1.395.6a12.27,12.27,0,0,0,2.7.8,15.392,15.392,0,0,0,4.815,0,13.965,13.965,0,0,0,2.7-.8,21.673,21.673,0,0,0,2.095-1.1,5.961,5.961,0,0,1-3.308,2.106c.5.7,1.193,1.5,1.193,1.5a7.829,7.829,0,0,0,5.805-2.589,23.425,23.425,0,0,0-2.723-10.53,9.023,9.023,0,0,0-5.152-1.89l.084-.03Zm.252,6.62A2.009,2.009,0,1,1,19.5,17.155a1.956,1.956,0,0,1,1.905-2.011Zm-6.815,0a6.262,6.262,0,1,1-.006,0Z" transform="translate(-1.755)" fill="#fff"/>
</svg>
