<svg xmlns="http://www.w3.org/2000/svg" width="28.549" height="34.657" viewBox="0 0 28.549 34.657">
  <path id="linux" d="M18.172,0c-.223,0-.455.012-.691.031C11.377.512,13,6.972,12.9,9.124a7.79,7.79,0,0,1-1.517,4.361,21.511,21.511,0,0,0-3.922,6.527,7.739,7.739,0,0,0-.414,3.593.612.612,0,0,0-.161.2c-.375.387-.648.867-.956,1.211a3.5,3.5,0,0,1-1.151.578,2.128,2.128,0,0,0-1.247.984,1.923,1.923,0,0,0-.191.867,4.04,4.04,0,0,0,.08.774,3.5,3.5,0,0,1,.056,1.4,2.711,2.711,0,0,0-.152,2.145,2.1,2.1,0,0,0,1.355.867c1.171.289,2.758.2,4.006.864a5.563,5.563,0,0,0,3.777.679,2.556,2.556,0,0,0,1.744-1.364c.847,0,1.776-.389,3.263-.482,1.009-.084,2.273.386,3.722.287a2.506,2.506,0,0,0,.165.482l0,0a2.712,2.712,0,0,0,2.72,1.547,5.057,5.057,0,0,0,3.259-1.886c.912-1.1,2.43-1.565,3.433-2.17a1.582,1.582,0,0,0,.938-1.232,2.892,2.892,0,0,0-1.031-1.989v-.141l0,0a3.275,3.275,0,0,1-.488-1.337,2.511,2.511,0,0,0-.71-1.51h0c-.085-.078-.177-.1-.271-.2a.515.515,0,0,0-.274-.092,7.776,7.776,0,0,0-.249-5.334,18.114,18.114,0,0,0-3.14-5.028c-1.149-1.451-2.276-2.826-2.253-4.865C23.329,5.754,23.631.006,18.173,0Zm.764,4.916h.018A1.373,1.373,0,0,1,19.8,5.2a2.209,2.209,0,0,1,.633.77,2.789,2.789,0,0,1,.24,1.045c0-.029.009-.058.009-.085v.15a.124.124,0,0,1-.006-.031l-.006-.035a2.609,2.609,0,0,1-.217,1.019,1.376,1.376,0,0,1-.308.484,1.025,1.025,0,0,0-.127-.061,1.6,1.6,0,0,1-.411-.193,1.894,1.894,0,0,0-.317-.1,2.7,2.7,0,0,0,.263-.286,1.7,1.7,0,0,0,.127-.58V7.279a1.747,1.747,0,0,0-.088-.578,2.15,2.15,0,0,0-.264-.482.663.663,0,0,0-.386-.191h-.023a.46.46,0,0,0-.378.191,1.155,1.155,0,0,0-.3.482,1.7,1.7,0,0,0-.13.578v.027a3.454,3.454,0,0,0,.029.386c-.278-.1-.632-.2-.876-.292a2.362,2.362,0,0,1-.026-.287V7.084a2.559,2.559,0,0,1,.217-1.11,1.566,1.566,0,0,1,.621-.77,1.423,1.423,0,0,1,.858-.287ZM14.659,5h.052a1.009,1.009,0,0,1,.577.2,2,2,0,0,1,.5.672,2.5,2.5,0,0,1,.22.964v.006a2.073,2.073,0,0,1,0,.384v.116c-.043.011-.081.026-.119.035a4.051,4.051,0,0,0-.568.289,1.619,1.619,0,0,0,0-.386V7.253a1.891,1.891,0,0,0-.118-.481.885.885,0,0,0-.24-.386.358.358,0,0,0-.264-.092h-.031a.338.338,0,0,0-.269.191.8.8,0,0,0-.173.39,1.363,1.363,0,0,0-.034.478v.02a1.808,1.808,0,0,0,.116.482.9.9,0,0,0,.238.387.284.284,0,0,0,.049.035,1.73,1.73,0,0,0-.254.2.441.441,0,0,1-.19.1,3.784,3.784,0,0,1-.4-.58,2.559,2.559,0,0,1-.223-.964,2.539,2.539,0,0,1,.116-.964,2.065,2.065,0,0,1,.408-.772.81.81,0,0,1,.6-.289Zm1.979,2.463a2.933,2.933,0,0,1,1.755.577,6.458,6.458,0,0,0,1.52.676h0a1.608,1.608,0,0,1,.69.577V9.1a.824.824,0,0,1,.023.679A2.562,2.562,0,0,1,19.095,11v0c-.387.2-.724.481-1.119.672a2.777,2.777,0,0,1-1.461.386,1.644,1.644,0,0,1-.647-.1,5.149,5.149,0,0,1-.465-.286A8.2,8.2,0,0,0,14.519,11V11h-.007a2.26,2.26,0,0,1-.99-1.027A.724.724,0,0,1,13.8,9.1c.323-.2.549-.392.7-.485s.206-.147.254-.19h0v0a2.672,2.672,0,0,1,1.211-.867,2.658,2.658,0,0,1,.673-.094Zm4.042,3.094a34.679,34.679,0,0,0,2.507,6.459,15.14,15.14,0,0,1,1.591,4.366,2.757,2.757,0,0,1,.741.092c.933-2.412-.788-5.005-1.572-5.726-.32-.29-.335-.484-.177-.484a8.4,8.4,0,0,1,2.377,3.981,5.1,5.1,0,0,1,.031,2.411,1.075,1.075,0,0,0,.3.1c1.49.771,2.04,1.354,1.776,2.219V23.91c-.088,0-.173,0-.261,0h-.021c.218-.675-.263-1.191-1.537-1.767-1.322-.578-2.377-.485-2.557.672a1.663,1.663,0,0,0-.025.2,1.82,1.82,0,0,1-.3.092A2.638,2.638,0,0,0,22.4,24.816a14.847,14.847,0,0,0-.3,2.7v0a11.171,11.171,0,0,1-.461,1.95c-2.166,1.548-5.169,2.221-7.724.482a3.819,3.819,0,0,0-.58-.77,2.094,2.094,0,0,0-.4-.482,2.34,2.34,0,0,0,.672-.1.887.887,0,0,0,.453-.482,1.912,1.912,0,0,0-.5-1.679,9.146,9.146,0,0,0-2.582-2.2,3.673,3.673,0,0,1-1.66-2.016,4.528,4.528,0,0,1-.021-2.376,14.054,14.054,0,0,1,1.839-3.989c.155-.094.053.2-.589,1.406-.572,1.085-1.648,3.6-.176,5.565a11.73,11.73,0,0,1,.935-4.153c.814-1.845,2.517-5.059,2.651-7.606a5.057,5.057,0,0,1,.417.292c.315.193.549.481.852.672a1.723,1.723,0,0,0,1.265.484c.056,0,.108.009.161.009a3.1,3.1,0,0,0,1.438-.387c.419-.193.753-.482,1.068-.578h.007a2.788,2.788,0,0,0,1.508-1.011Zm3.156,12.934A2.084,2.084,0,0,0,25.11,25.48a3.153,3.153,0,0,0,2.585-1.1L28,24.364a1.494,1.494,0,0,1,1.222.386l0,0a2.623,2.623,0,0,1,.565,1.265,3.2,3.2,0,0,0,.59,1.539A2.69,2.69,0,0,1,31.3,29.2l0-.009v.026l0-.017c-.021.378-.267.572-.719.859-.91.579-2.521,1.028-3.547,2.267a4.488,4.488,0,0,1-2.94,1.72,2.158,2.158,0,0,1-2.273-1.3l-.007,0a3.7,3.7,0,0,1,.081-2.44,16.785,16.785,0,0,0,.669-2.74,14.933,14.933,0,0,1,.281-2.619,2.086,2.086,0,0,1,.926-1.421l.065-.032Zm-15.616.071h.014a1.259,1.259,0,0,1,.226.02,2.433,2.433,0,0,1,1.477,1.086l1.314,2.4,0,0a14.931,14.931,0,0,0,1.717,2.365,3.972,3.972,0,0,1,1.052,2.267v.009A1.916,1.916,0,0,1,12.4,33.585a5.335,5.335,0,0,1-3.459-.67c-1.4-.774-3.058-.678-4.126-.869a1.4,1.4,0,0,1-1.044-.579A2.332,2.332,0,0,1,3.95,29.69v0l0,0a3.516,3.516,0,0,0-.039-1.616,2.271,2.271,0,0,1,.063-1.357c.231-.482.572-.577.994-.77a4.048,4.048,0,0,0,1.323-.678h0v0c.37-.387.642-.867.964-1.21a1.263,1.263,0,0,1,.958-.485Zm10.337-13.1a5.393,5.393,0,0,1-2.148.772,3.394,3.394,0,0,1-1.846-.673c-.223-.193-.4-.387-.54-.484-.237-.193-.208-.482-.107-.482.158.023.187.2.287.29a6.746,6.746,0,0,1,.521.481,3,3,0,0,0,1.684.675,4.548,4.548,0,0,0,2.019-.673c.281-.2.642-.482.936-.675.225-.2.215-.387.4-.387.187.023.049.193-.212.481a11.692,11.692,0,0,1-1,.676v0ZM17,8.174V8.143c-.009-.027.018-.061.042-.072a.456.456,0,0,1,.375.006c.091,0,.231.1.217.2-.009.071-.123.1-.2.1s-.133-.063-.2-.1S17.02,8.258,17,8.175Zm-.8,0c-.029.084-.164.071-.24.1s-.124.1-.2.1-.19-.027-.2-.1c-.013-.1.127-.193.217-.193a.462.462,0,0,1,.374-.007.068.068,0,0,1,.043.072v.031h0Z" transform="translate(-3.17 0.003)" fill="#fff"/>
</svg>
