<svg xmlns="http://www.w3.org/2000/svg" xmlns:xlink="http://www.w3.org/1999/xlink" width="240.6" height="268.457" viewBox="0 0 240.6 268.457">
  <defs>
    <linearGradient id="linear-gradient" x1="0.147" x2="0.826" y2="1.039" gradientUnits="objectBoundingBox">
      <stop offset="0" stop-color="#6af6b0"/>
      <stop offset="1" stop-color="#e5006b"/>
    </linearGradient>
    <linearGradient id="linear-gradient-3" x1="0.018" y1="0.5" x2="1" y2="0.5" gradientUnits="objectBoundingBox">
      <stop offset="0" stop-color="#2bf86f"/>
      <stop offset="1" stop-color="#e5006b"/>
    </linearGradient>
    <filter id="Polygon_32">
      <feOffset dx="34" dy="-5" input="SourceAlpha"/>
      <feGaussianBlur stdDeviation="49.5" result="blur"/>
      <feFlood flood-color="#1c0061" result="color"/>
      <feComposite operator="out" in="SourceGraphic" in2="blur"/>
      <feComposite operator="in" in="color"/>
      <feComposite operator="in" in2="SourceGraphic"/>
    </filter>
    <radialGradient id="radial-gradient" cx="0.569" cy="0.5" r="0.5" gradientUnits="objectBoundingBox">
      <stop offset="0" stop-color="#e5eef7"/>
      <stop offset="1" stop-color="#a1a9d6"/>
    </radialGradient>
    <radialGradient id="radial-gradient-2" cx="0.479" cy="0.958" r="0.5" gradientUnits="objectBoundingBox">
      <stop offset="0" stop-color="#d3e2f8"/>
      <stop offset="1" stop-color="#a6b0e8"/>
    </radialGradient>
  </defs>
  <g id="Group_453" data-name="Group 453" transform="translate(-2448.036 4542.412)">
    <g id="Group_452" data-name="Group 452">
      <g id="Group_417" data-name="Group 417" transform="translate(2448.036 -4542.412)">
        <g id="Polygon_31" data-name="Polygon 31" transform="translate(240.6 0) rotate(90)">
          <path id="Path_144" data-name="Path 144" d="M174.386,0a20.765,20.765,0,0,1,17.974,10.366l51.181,88.46a20.765,20.765,0,0,1,0,20.8l-51.181,88.46a20.765,20.765,0,0,1-17.974,10.366H71.947a20.765,20.765,0,0,1-17.974-10.366L2.792,119.625a20.765,20.765,0,0,1,0-20.8l51.181-88.46A20.765,20.765,0,0,1,71.947,0Z" transform="translate(11.062 11.075)" fill="url(#linear-gradient)"/>
          <path id="Path_145" data-name="Path 145" d="M83.009,11.075A20.765,20.765,0,0,0,65.035,21.441L13.854,109.9a20.765,20.765,0,0,0,0,20.8l51.181,88.46a20.765,20.765,0,0,0,17.974,10.366H185.448a20.765,20.765,0,0,0,17.974-10.366L254.6,130.7a20.765,20.765,0,0,0,0-20.8l-51.181-88.46a20.765,20.765,0,0,0-17.974-10.366H83.009M83.009,0H185.448a31.933,31.933,0,0,1,27.56,15.895l51.181,88.46a31.92,31.92,0,0,1,0,31.891l-51.181,88.46a31.933,31.933,0,0,1-27.56,15.895H83.009a31.933,31.933,0,0,1-27.56-15.895L4.268,136.246a31.921,31.921,0,0,1,0-31.891l51.181-88.46A31.933,31.933,0,0,1,83.009,0Z" transform="translate(0)" fill="url(#linear-gradient)"/>
        </g>
        <g id="Polygon_31-2" data-name="Polygon 31" transform="translate(240.6 0) rotate(90)">
          <path id="Path_146" data-name="Path 146" d="M174.386,0a20.765,20.765,0,0,1,17.974,10.366l51.181,88.46a20.765,20.765,0,0,1,0,20.8l-51.181,88.46a20.765,20.765,0,0,1-17.974,10.366H71.947a20.765,20.765,0,0,1-17.974-10.366L2.792,119.625a20.765,20.765,0,0,1,0-20.8l51.181-88.46A20.765,20.765,0,0,1,71.947,0Z" transform="translate(11.062 11.075)" fill="none"/>
          <path id="Path_147" data-name="Path 147" d="M83.009,11.075A20.765,20.765,0,0,0,65.035,21.441L13.854,109.9a20.765,20.765,0,0,0,0,20.8l51.181,88.46a20.765,20.765,0,0,0,17.974,10.366H185.448a20.765,20.765,0,0,0,17.974-10.366L254.6,130.7a20.765,20.765,0,0,0,0-20.8l-51.181-88.46a20.765,20.765,0,0,0-17.974-10.366H83.009M83.009,0H185.448a31.933,31.933,0,0,1,27.56,15.895l51.181,88.46a31.92,31.92,0,0,1,0,31.891l-51.181,88.46a31.933,31.933,0,0,1-27.56,15.895H83.009a31.933,31.933,0,0,1-27.56-15.895L4.268,136.246a31.921,31.921,0,0,1,0-31.891l51.181-88.46A31.933,31.933,0,0,1,83.009,0Z" transform="translate(0)" fill="rgba(71,106,246,0.3)"/>
        </g>
      </g>
      <g data-type="innerShadowGroup">
        <path id="Polygon_32-2" data-name="Polygon 32" d="M158.189,0a20.765,20.765,0,0,1,17.982,10.381L221.977,89.7a20.765,20.765,0,0,1,0,20.768L176.171,189.8a20.765,20.765,0,0,1-17.982,10.381H66.571A20.765,20.765,0,0,1,48.589,189.8L2.783,110.473a20.765,20.765,0,0,1,0-20.768L48.589,10.381A20.765,20.765,0,0,1,66.571,0Z" transform="translate(2668.323 -4520.563) rotate(90)" fill="url(#linear-gradient-3)"/>
        <g transform="matrix(1, 0, 0, 1, 2448.04, -4542.41)" filter="url(#Polygon_32)">
          <path id="Polygon_32-3" data-name="Polygon 32" d="M158.189,0a20.765,20.765,0,0,1,17.982,10.381L221.977,89.7a20.765,20.765,0,0,1,0,20.768L176.171,189.8a20.765,20.765,0,0,1-17.982,10.381H66.571A20.765,20.765,0,0,1,48.589,189.8L2.783,110.473a20.765,20.765,0,0,1,0-20.768L48.589,10.381A20.765,20.765,0,0,1,66.571,0Z" transform="translate(220.29 21.85) rotate(90)" fill="#fff"/>
        </g>
      </g>
      <path id="Intersection_11" data-name="Intersection 11" d="M124.009,200.177V0h30.179V200.177Zm-42.361,0V0h30.179V200.177Zm-15.076,0A20.765,20.765,0,0,1,48.589,189.8l-9.3-16.11V26.49l9.3-16.109A20.765,20.765,0,0,1,66.571,0h2.894V200.177Zm99.8-198.5a20.761,20.761,0,0,1,9.8,8.7l20.378,35.288V154.507L176.173,189.8a20.761,20.761,0,0,1-9.8,8.7ZM2.783,110.473a20.765,20.765,0,0,1,0-20.768L27.1,47.587v105ZM208.731,66.766l13.246,22.94a20.765,20.765,0,0,1,0,20.768l-13.246,22.939Z" transform="translate(2668.323 -4520.563) rotate(90)" opacity="0.08"/>
      <g id="Group_6" data-name="Group 6" transform="translate(2552.28 -4366.479)">
        <path id="Path_13" data-name="Path 13" d="M44.146-113.317H33.867v9.967H22.654v-9.967H12.375v-10.59H22.654v-9.967H33.867v9.967H44.146Z" transform="translate(-7.668 139.412)" opacity="0.3"/>
        <path id="Path_4" data-name="Path 4" d="M44.146-113.317H33.867v9.967H22.654v-9.967H12.375v-10.59H22.654v-9.967H33.867v9.967H44.146Z" transform="translate(-12.375 133.875)" fill="url(#radial-gradient)"/>
      </g>
      <path id="Path_19" data-name="Path 19" d="M50.61-111.362l-.122-19.431L41.229-115.2H34.895l-9.259-14.923v18.761H12.54V-154H24.357l13.888,22.72L51.767-154H63.584l.122,42.638ZM116.211-154l-18.03,42.638H84.05L66.02-154H81.492l10.172,24.913L102.08-154Zm1.4,0h14.375v42.638H117.612Zm41.846,0a25.167,25.167,0,0,1,10.294,1.949,15.168,15.168,0,0,1,6.761,5.6,15.3,15.3,0,0,1,2.376,8.528,15.3,15.3,0,0,1-2.376,8.528,15.169,15.169,0,0,1-6.761,5.6,25.167,25.167,0,0,1-10.294,1.949h-6.152v10.477H138.931V-154Zm-.914,21.075a6.4,6.4,0,0,0,4.386-1.31,4.691,4.691,0,0,0,1.462-3.685,4.691,4.691,0,0,0-1.462-3.685,6.4,6.4,0,0,0-4.386-1.31h-5.238v9.989Z" transform="translate(2479.428 -4268.442)" opacity="0.3"/>
      <path id="Path_16" data-name="Path 16" d="M50.61-111.362l-.122-19.431L41.229-115.2H34.895l-9.259-14.923v18.761H12.54V-154H24.357l13.888,22.72L51.767-154H63.584l.122,42.638ZM116.211-154l-18.03,42.638H84.05L66.02-154H81.492l10.172,24.913L102.08-154Zm1.4,0h14.375v42.638H117.612Zm41.846,0a25.167,25.167,0,0,1,10.294,1.949,15.168,15.168,0,0,1,6.761,5.6,15.3,15.3,0,0,1,2.376,8.528,15.3,15.3,0,0,1-2.376,8.528,15.169,15.169,0,0,1-6.761,5.6,25.167,25.167,0,0,1-10.294,1.949h-6.152v10.477H138.931V-154Zm-.914,21.075a6.4,6.4,0,0,0,4.386-1.31,4.691,4.691,0,0,0,1.462-3.685,4.691,4.691,0,0,0-1.462-3.685,6.4,6.4,0,0,0-4.386-1.31h-5.238v9.989Z" transform="translate(2473.614 -4274.81)" fill="url(#radial-gradient-2)"/>
    </g>
  </g>
</svg>
