<svg xmlns="http://www.w3.org/2000/svg" xmlns:xlink="http://www.w3.org/1999/xlink" width="155.294" height="173.274" viewBox="0 0 155.294 173.274">
  <defs>
    <linearGradient id="linear-gradient" x1="0.147" x2="0.826" y2="1.039" gradientUnits="objectBoundingBox">
      <stop offset="0" stop-color="#6ad0f6"/>
      <stop offset="1" stop-color="#5700e5"/>
    </linearGradient>
    <linearGradient id="linear-gradient-3" x1="0.018" y1="0.5" x2="1" y2="0.5" gradientUnits="objectBoundingBox">
      <stop offset="0" stop-color="#2bf1f8"/>
      <stop offset="1" stop-color="#3709b0"/>
    </linearGradient>
    <filter id="Polygon_26">
      <feOffset dx="34" dy="-5" input="SourceAlpha"/>
      <feGaussianBlur stdDeviation="49.5" result="blur"/>
      <feFlood flood-color="#1c0061" result="color"/>
      <feComposite operator="out" in="SourceGraphic" in2="blur"/>
      <feComposite operator="in" in="color"/>
      <feComposite operator="in" in2="SourceGraphic"/>
    </filter>
    <radialGradient id="radial-gradient" cx="0.569" cy="0.5" r="0.5" gradientUnits="objectBoundingBox">
      <stop offset="0" stop-color="#e5eef7"/>
      <stop offset="1" stop-color="#a1a9d6"/>
    </radialGradient>
    <radialGradient id="radial-gradient-2" cx="0.5" cy="0.882" r="0.5" gradientUnits="objectBoundingBox">
      <stop offset="0" stop-color="#d3e2f8"/>
      <stop offset="1" stop-color="#a6b0e8"/>
    </radialGradient>
  </defs>
  <g id="Group_419" data-name="Group 419">
    <g id="Polygon_25" data-name="Polygon 25" transform="translate(155.294 0) rotate(90)">
      <path id="Path_152" data-name="Path 152" d="M112.557,0a13.4,13.4,0,0,1,11.6,6.691l33.035,57.1a13.4,13.4,0,0,1,0,13.424l-33.035,57.1a13.4,13.4,0,0,1-11.6,6.691H46.438a13.4,13.4,0,0,1-11.6-6.691L1.8,77.211a13.4,13.4,0,0,1,0-13.424l33.035-57.1A13.4,13.4,0,0,1,46.438,0Z" transform="translate(7.14 7.148)" fill="url(#linear-gradient)"/>
      <path id="Path_153" data-name="Path 153" d="M53.578,7.148a13.4,13.4,0,0,0-11.6,6.691L8.942,70.935a13.4,13.4,0,0,0,0,13.424l33.035,57.1a13.4,13.4,0,0,0,11.6,6.691H119.7a13.4,13.4,0,0,0,11.6-6.691l33.035-57.1a13.4,13.4,0,0,0,0-13.424L131.3,13.839a13.4,13.4,0,0,0-11.6-6.691H53.578m0-7.148H119.7a20.611,20.611,0,0,1,17.788,10.259l33.035,57.1a20.6,20.6,0,0,1,0,20.584l-33.035,57.1A20.611,20.611,0,0,1,119.7,155.294H53.578a20.611,20.611,0,0,1-17.788-10.259L2.755,87.939a20.6,20.6,0,0,1,0-20.584l33.035-57.1A20.611,20.611,0,0,1,53.578,0Z" transform="translate(0)" fill="url(#linear-gradient)"/>
    </g>
    <g id="Polygon_25-2" data-name="Polygon 25" transform="translate(155.294 0) rotate(90)">
      <path id="Path_154" data-name="Path 154" d="M112.557,0a13.4,13.4,0,0,1,11.6,6.691l33.035,57.1a13.4,13.4,0,0,1,0,13.424l-33.035,57.1a13.4,13.4,0,0,1-11.6,6.691H46.438a13.4,13.4,0,0,1-11.6-6.691L1.8,77.211a13.4,13.4,0,0,1,0-13.424l33.035-57.1A13.4,13.4,0,0,1,46.438,0Z" transform="translate(7.14 7.148)" fill="none"/>
      <path id="Path_155" data-name="Path 155" d="M53.578,7.148a13.4,13.4,0,0,0-11.6,6.691L8.942,70.935a13.4,13.4,0,0,0,0,13.424l33.035,57.1a13.4,13.4,0,0,0,11.6,6.691H119.7a13.4,13.4,0,0,0,11.6-6.691l33.035-57.1a13.4,13.4,0,0,0,0-13.424L131.3,13.839a13.4,13.4,0,0,0-11.6-6.691H53.578m0-7.148H119.7a20.611,20.611,0,0,1,17.788,10.259l33.035,57.1a20.6,20.6,0,0,1,0,20.584l-33.035,57.1A20.611,20.611,0,0,1,119.7,155.294H53.578a20.611,20.611,0,0,1-17.788-10.259L2.755,87.939a20.6,20.6,0,0,1,0-20.584l33.035-57.1A20.611,20.611,0,0,1,53.578,0Z" transform="translate(0)" fill="rgba(71,106,246,0.3)"/>
    </g>
  </g>
  <g data-type="innerShadowGroup">
    <path id="Polygon_26-2" data-name="Polygon 26" d="M102.1,0a13.4,13.4,0,0,1,11.606,6.7l29.565,51.2a13.4,13.4,0,0,1,0,13.4l-29.565,51.2a13.4,13.4,0,0,1-11.606,6.7H42.968a13.4,13.4,0,0,1-11.606-6.7L1.8,71.3a13.4,13.4,0,0,1,0-13.4L31.361,6.7A13.4,13.4,0,0,1,42.968,0Z" transform="translate(142.616 14.102) rotate(90)" fill="url(#linear-gradient-3)"/>
    <g transform="matrix(1, 0, 0, 1, 0, 0)" filter="url(#Polygon_26)">
      <path id="Polygon_26-3" data-name="Polygon 26" d="M102.1,0a13.4,13.4,0,0,1,11.606,6.7l29.565,51.2a13.4,13.4,0,0,1,0,13.4l-29.565,51.2a13.4,13.4,0,0,1-11.606,6.7H42.968a13.4,13.4,0,0,1-11.606-6.7L1.8,71.3a13.4,13.4,0,0,1,0-13.4L31.361,6.7A13.4,13.4,0,0,1,42.968,0Z" transform="translate(142.62 14.1) rotate(90)" fill="#fff"/>
    </g>
  </g>
  <path id="Intersection_9" data-name="Intersection 9" d="M80.041,129.2V0H99.52V129.2Zm-27.342,0V0H72.178V129.2Zm-9.731,0a13.4,13.4,0,0,1-11.606-6.7l-6-10.4V17.1l6-10.4A13.4,13.4,0,0,1,42.968,0h1.868V129.2ZM107.383,1.084A13.4,13.4,0,0,1,113.709,6.7l13.153,22.776V99.726L113.71,122.5a13.4,13.4,0,0,1-6.326,5.617ZM1.8,71.3a13.4,13.4,0,0,1,0-13.4l15.7-27.185V98.489Zm132.928-28.21,8.55,14.807a13.4,13.4,0,0,1,0,13.4l-8.55,14.806Z" transform="translate(142.616 14.102) rotate(90)" opacity="0.08"/>
  <path id="Path_14" data-name="Path 14" d="M32.881-120.606H26.247v6.433H19.009v-6.433H12.375v-6.835h6.634v-6.433h7.238v6.433h6.634Z" transform="translate(58.772 251.004)" opacity="0.3"/>
  <path id="Path_7" data-name="Path 7" d="M32.881-120.606H26.247v6.433H19.009v-6.433H12.375v-6.835h6.634v-6.433h7.238v6.433h6.634Z" transform="translate(55.668 247.43)" fill="url(#radial-gradient)"/>
  <path id="Path_21" data-name="Path 21" d="M24.335-133.4H21.818v6.919H12.54V-154H25.789a16.244,16.244,0,0,1,6.644,1.258,9.79,9.79,0,0,1,4.364,3.617,9.872,9.872,0,0,1,1.533,5.5,9.728,9.728,0,0,1-1.337,5.15,9.439,9.439,0,0,1-3.853,3.5l5.779,8.492H29.013Zm4.639-10.222A3.028,3.028,0,0,0,28.03-146a4.128,4.128,0,0,0-2.831-.845H21.818v6.448H25.2a4.128,4.128,0,0,0,2.831-.845A3.028,3.028,0,0,0,28.974-143.621ZM71.237-154,59.6-126.479H50.479L38.842-154h9.986l6.566,16.08L62.116-154Zm.9,0H81.42v27.521H72.142Zm27.009,0a16.244,16.244,0,0,1,6.644,1.258,9.79,9.79,0,0,1,4.364,3.617,9.872,9.872,0,0,1,1.533,5.5,9.872,9.872,0,0,1-1.533,5.5A9.791,9.791,0,0,1,105.8-134.5a16.245,16.245,0,0,1-6.644,1.258H95.18v6.762H85.9V-154Zm-.59,13.6a4.128,4.128,0,0,0,2.831-.845,3.028,3.028,0,0,0,.944-2.379,3.028,3.028,0,0,0-.944-2.379,4.128,4.128,0,0,0-2.831-.845H95.18v6.448Z" transform="translate(20.447 231.434)" opacity="0.3"/>
  <path id="Path_18" data-name="Path 18" d="M24.335-133.4H21.818v6.919H12.54V-154H25.789a16.244,16.244,0,0,1,6.644,1.258,9.79,9.79,0,0,1,4.364,3.617,9.872,9.872,0,0,1,1.533,5.5,9.728,9.728,0,0,1-1.337,5.15,9.439,9.439,0,0,1-3.853,3.5l5.779,8.492H29.013Zm4.639-10.222A3.028,3.028,0,0,0,28.03-146a4.128,4.128,0,0,0-2.831-.845H21.818v6.448H25.2a4.128,4.128,0,0,0,2.831-.845A3.028,3.028,0,0,0,28.974-143.621ZM71.237-154,59.6-126.479H50.479L38.842-154h9.986l6.566,16.08L62.116-154Zm.9,0H81.42v27.521H72.142Zm27.009,0a16.244,16.244,0,0,1,6.644,1.258,9.79,9.79,0,0,1,4.364,3.617,9.872,9.872,0,0,1,1.533,5.5,9.872,9.872,0,0,1-1.533,5.5A9.791,9.791,0,0,1,105.8-134.5a16.245,16.245,0,0,1-6.644,1.258H95.18v6.762H85.9V-154Zm-.59,13.6a4.128,4.128,0,0,0,2.831-.845,3.028,3.028,0,0,0,.944-2.379,3.028,3.028,0,0,0-.944-2.379,4.128,4.128,0,0,0-2.831-.845H95.18v6.448Z" transform="translate(16.607 227.324)" fill="url(#radial-gradient-2)"/>
</svg>
