<svg xmlns="http://www.w3.org/2000/svg" xmlns:xlink="http://www.w3.org/1999/xlink" width="155.294" height="173.274" viewBox="0 0 155.294 173.274">
  <defs>
    <linearGradient id="linear-gradient" x1="0.133" y1="0.147" x2="0.855" y2="0.908" gradientUnits="objectBoundingBox">
      <stop offset="0" stop-color="#ffd500"/>
      <stop offset="1" stop-color="#f80"/>
    </linearGradient>
    <linearGradient id="linear-gradient-3" y1="0.5" x2="1" y2="0.5" gradientUnits="objectBoundingBox">
      <stop offset="0" stop-color="#e0f32e"/>
      <stop offset="1" stop-color="#e6a509"/>
    </linearGradient>
    <filter id="Polygon_1">
      <feOffset dx="34" dy="-5" input="SourceAlpha"/>
      <feGaussianBlur stdDeviation="49.5" result="blur"/>
      <feFlood flood-color="#454707" result="color"/>
      <feComposite operator="out" in="SourceGraphic" in2="blur"/>
      <feComposite operator="in" in="color"/>
      <feComposite operator="in" in2="SourceGraphic"/>
    </filter>
    <radialGradient id="radial-gradient" cx="0.561" cy="0.883" r="0.5" gradientUnits="objectBoundingBox">
      <stop offset="0" stop-color="#d3e2f8"/>
      <stop offset="1" stop-color="#a6b0e8"/>
    </radialGradient>
  </defs>
  <g id="Group_422" data-name="Group 422">
    <g id="Polygon_3" data-name="Polygon 3" transform="translate(155.294 0) rotate(90)">
      <path id="Path_164" data-name="Path 164" d="M112.557,0a13.4,13.4,0,0,1,11.6,6.691l33.035,57.1a13.4,13.4,0,0,1,0,13.424l-33.035,57.1a13.4,13.4,0,0,1-11.6,6.691H46.438a13.4,13.4,0,0,1-11.6-6.691L1.8,77.211a13.4,13.4,0,0,1,0-13.424l33.035-57.1A13.4,13.4,0,0,1,46.438,0Z" transform="translate(7.14 7.148)" fill="url(#linear-gradient)"/>
      <path id="Path_165" data-name="Path 165" d="M53.578,7.148a13.4,13.4,0,0,0-11.6,6.691L8.942,70.935a13.4,13.4,0,0,0,0,13.424l33.035,57.1a13.4,13.4,0,0,0,11.6,6.691H119.7a13.4,13.4,0,0,0,11.6-6.691l33.035-57.1a13.4,13.4,0,0,0,0-13.424L131.3,13.839a13.4,13.4,0,0,0-11.6-6.691H53.578m0-7.148H119.7a20.611,20.611,0,0,1,17.788,10.259l33.035,57.1a20.6,20.6,0,0,1,0,20.584l-33.035,57.1A20.611,20.611,0,0,1,119.7,155.294H53.578a20.611,20.611,0,0,1-17.788-10.259L2.755,87.939a20.6,20.6,0,0,1,0-20.584l33.035-57.1A20.611,20.611,0,0,1,53.578,0Z" transform="translate(0)" fill="url(#linear-gradient)"/>
    </g>
    <g id="Polygon_3-2" data-name="Polygon 3" transform="translate(155.294 0) rotate(90)">
      <path id="Path_166" data-name="Path 166" d="M112.557,0a13.4,13.4,0,0,1,11.6,6.691l33.035,57.1a13.4,13.4,0,0,1,0,13.424l-33.035,57.1a13.4,13.4,0,0,1-11.6,6.691H46.438a13.4,13.4,0,0,1-11.6-6.691L1.8,77.211a13.4,13.4,0,0,1,0-13.424l33.035-57.1A13.4,13.4,0,0,1,46.438,0Z" transform="translate(7.14 7.148)" fill="none"/>
      <path id="Path_167" data-name="Path 167" d="M53.578,7.148a13.4,13.4,0,0,0-11.6,6.691L8.942,70.935a13.4,13.4,0,0,0,0,13.424l33.035,57.1a13.4,13.4,0,0,0,11.6,6.691H119.7a13.4,13.4,0,0,0,11.6-6.691l33.035-57.1a13.4,13.4,0,0,0,0-13.424L131.3,13.839a13.4,13.4,0,0,0-11.6-6.691H53.578m0-7.148H119.7a20.611,20.611,0,0,1,17.788,10.259l33.035,57.1a20.6,20.6,0,0,1,0,20.584l-33.035,57.1A20.611,20.611,0,0,1,119.7,155.294H53.578a20.611,20.611,0,0,1-17.788-10.259L2.755,87.939a20.6,20.6,0,0,1,0-20.584l33.035-57.1A20.611,20.611,0,0,1,53.578,0Z" transform="translate(0)" fill="rgba(252,140,0,0.3)"/>
    </g>
  </g>
  <g data-type="innerShadowGroup">
    <path id="Polygon_1-2" data-name="Polygon 1" d="M102.1,0a13.4,13.4,0,0,1,11.606,6.7l29.565,51.2a13.4,13.4,0,0,1,0,13.4l-29.565,51.2a13.4,13.4,0,0,1-11.606,6.7H42.968a13.4,13.4,0,0,1-11.606-6.7L1.8,71.3a13.4,13.4,0,0,1,0-13.4L31.361,6.7A13.4,13.4,0,0,1,42.968,0Z" transform="translate(142.76 14.191) rotate(90)" fill="url(#linear-gradient-3)"/>
    <g transform="matrix(1, 0, 0, 1, 0, 0)" filter="url(#Polygon_1)">
      <path id="Polygon_1-3" data-name="Polygon 1" d="M102.1,0a13.4,13.4,0,0,1,11.606,6.7l29.565,51.2a13.4,13.4,0,0,1,0,13.4l-29.565,51.2a13.4,13.4,0,0,1-11.606,6.7H42.968a13.4,13.4,0,0,1-11.606-6.7L1.8,71.3a13.4,13.4,0,0,1,0-13.4L31.361,6.7A13.4,13.4,0,0,1,42.968,0Z" transform="translate(142.76 14.19) rotate(90)" fill="#fff"/>
    </g>
  </g>
  <path id="Intersection_1" data-name="Intersection 1" d="M80.041,129.2V0H99.52V129.2Zm-27.342,0V0H72.178V129.2Zm-9.731,0a13.4,13.4,0,0,1-11.606-6.7l-6-10.4V17.1l6-10.4A13.4,13.4,0,0,1,42.968,0h1.868V129.2ZM107.383,1.084A13.4,13.4,0,0,1,113.709,6.7l13.153,22.776V99.726L113.71,122.5a13.4,13.4,0,0,1-6.326,5.617ZM1.8,71.3a13.4,13.4,0,0,1,0-13.4l15.7-27.185V98.489Zm132.928-28.21,8.55,14.807a13.4,13.4,0,0,1,0,13.4l-8.55,14.806Z" transform="translate(142.76 14.191) rotate(90)" opacity="0.08"/>
  <path id="Path_8" data-name="Path 8" d="M36.809-200.9,21.627-165H9.729L-5.453-200.9H7.575l8.565,20.977L24.91-200.9Zm1.179,0h12.1V-165h-12.1Zm35.235,0a21.188,21.188,0,0,1,8.667,1.641,12.778,12.778,0,0,1,5.693,4.718,12.879,12.879,0,0,1,2,7.18,12.879,12.879,0,0,1-2,7.18,12.768,12.768,0,0,1-5.693,4.718,21.206,21.206,0,0,1-8.667,1.641h-5.18V-165h-12.1v-35.9Zm-.768,17.745a5.385,5.385,0,0,0,3.693-1.1,3.95,3.95,0,0,0,1.231-3.1,3.95,3.95,0,0,0-1.231-3.1,5.386,5.386,0,0,0-3.693-1.1H68.043v8.411Z" transform="translate(38.952 274.947)" opacity="0.3"/>
  <path id="Path_1" data-name="Path 1" d="M36.809-200.9,21.627-165H9.729L-5.453-200.9H7.575l8.565,20.977L24.91-200.9Zm1.179,0h12.1V-165h-12.1Zm35.235,0a21.188,21.188,0,0,1,8.667,1.641,12.778,12.778,0,0,1,5.693,4.718,12.879,12.879,0,0,1,2,7.18,12.879,12.879,0,0,1-2,7.18,12.768,12.768,0,0,1-5.693,4.718,21.206,21.206,0,0,1-8.667,1.641h-5.18V-165h-12.1v-35.9Zm-.768,17.745a5.385,5.385,0,0,0,3.693-1.1,3.95,3.95,0,0,0,1.231-3.1,3.95,3.95,0,0,0-1.231-3.1,5.386,5.386,0,0,0-3.693-1.1H68.043v8.411Z" transform="translate(36.093 269.586)" fill="url(#radial-gradient)"/>
</svg>
